<svg width="156" height="23" viewBox="0 0 156 23" fill="none" xmlns="http://www.w3.org/2000/svg">
<path d="M60.68 18.0081C63.245 18.0081 64.76 16.4631 64.76 14.6481C64.76 13.0431 63.875 12.1881 62.525 11.6331L61.07 11.0181C60.125 10.6431 59.33 10.3581 59.33 9.56306C59.33 8.82806 59.96 8.39306 60.935 8.39306C61.85 8.39306 62.585 8.72306 63.29 9.30806L64.415 7.91306C63.515 6.99806 62.225 6.48807 60.935 6.48807C58.685 6.48807 57.095 7.88306 57.095 9.69806C57.095 11.3181 58.22 12.2181 59.345 12.6831L60.83 13.3131C61.82 13.7331 62.495 13.9881 62.495 14.8131C62.495 15.5931 61.88 16.0881 60.725 16.0881C59.75 16.0881 58.7 15.5931 57.905 14.8581L56.63 16.3881C57.71 17.4231 59.195 18.0081 60.68 18.0081ZM66.4254 17.7981H68.5254V13.3431C68.5254 12.0681 68.3604 10.6731 68.2554 9.47307H68.3304L69.4554 11.8581L72.6654 17.7981H74.9154V6.69807H72.8154V11.1231C72.8154 12.3831 72.9804 13.8531 73.1004 15.0081H73.0254L71.9154 12.6081L68.6904 6.69807H66.4254V17.7981ZM80.6757 18.0081C83.2407 18.0081 84.7557 16.4631 84.7557 14.6481C84.7557 13.0431 83.8707 12.1881 82.5207 11.6331L81.0657 11.0181C80.1207 10.6431 79.3257 10.3581 79.3257 9.56306C79.3257 8.82806 79.9557 8.39306 80.9307 8.39306C81.8457 8.39306 82.5807 8.72306 83.2857 9.30806L84.4107 7.91306C83.5107 6.99806 82.2207 6.48807 80.9307 6.48807C78.6807 6.48807 77.0907 7.88306 77.0907 9.69806C77.0907 11.3181 78.2157 12.2181 79.3407 12.6831L80.8257 13.3131C81.8157 13.7331 82.4907 13.9881 82.4907 14.8131C82.4907 15.5931 81.8757 16.0881 80.7207 16.0881C79.7457 16.0881 78.6957 15.5931 77.9007 14.8581L76.6257 16.3881C77.7057 17.4231 79.1907 18.0081 80.6757 18.0081ZM96.1795 10.5531C96.4945 9.05307 96.4945 7.83806 96.4945 6.92306V6.02306H89.4145V7.59807H94.5445C94.5295 8.36307 94.4695 9.26307 94.2595 10.4031L96.1795 10.5531ZM97.0945 11.1831C95.8045 11.3331 94.4245 11.4231 93.0595 11.4831V9.11306H91.1245V11.5281C90.2395 11.5431 89.3845 11.5431 88.6045 11.5431L88.7995 13.1181C91.2595 13.1181 94.3795 13.0581 97.2145 12.5931L97.0945 11.1831ZM95.1745 17.5281C93.3745 17.5281 92.3995 17.1981 92.3995 16.4631C92.3995 15.7281 93.3745 15.3831 95.1745 15.3831C96.9445 15.3831 97.9195 15.7281 97.9195 16.4631C97.9195 17.1981 96.9445 17.5281 95.1745 17.5281ZM95.1745 13.8531C92.2195 13.8531 90.3745 14.8281 90.3745 16.4631C90.3745 18.0981 92.2195 19.0731 95.1745 19.0731C98.0995 19.0731 99.9445 18.0981 99.9445 16.4631C99.9445 14.8281 98.0995 13.8531 95.1745 13.8531ZM99.8245 8.66306V5.27306H97.8445V13.7031H99.8245V10.2981H101.489V8.66306H99.8245ZM113.053 14.3931C113.608 11.4531 113.608 9.50306 113.608 7.77806V6.45806H103.573V8.03306H111.628C111.628 9.63806 111.598 11.5581 111.073 14.1681L113.053 14.3931ZM108.703 15.8331V11.0781H106.723V15.8331H102.313V17.4231H114.808V15.8331H108.703ZM123.447 8.88806H120.612V7.11806H123.447V8.88806ZM118.647 8.88806H116.982V10.3581H127.062V8.88806H125.412V7.11806H127.167V5.64806H116.892V7.11806H118.647V8.88806ZM119.202 16.8081H126.762V13.3881H117.222V14.8131H124.812V15.4881H117.237V18.9831H127.122V17.5581H119.202V16.8081ZM115.797 11.0631V12.6231H128.277V11.0631H115.797ZM138.086 10.1931H139.196V14.5581H141.071V5.27306H139.196V8.61806H138.086V5.51306H136.241V13.4181H138.086V10.1931ZM135.581 11.4231C134.336 11.6631 133.226 11.7381 131.756 11.7681V10.4631H135.071V6.23306H129.836V7.77806H133.166V9.02306H129.851V13.3281H130.811C132.866 13.3281 134.201 13.2831 135.761 12.9681L135.581 11.4231ZM137.306 13.9731H135.326V14.2131C135.326 15.6381 133.901 17.1381 130.931 17.5131L131.696 19.0431C133.886 18.7281 135.461 17.8131 136.316 16.5381C137.141 17.8131 138.731 18.7281 140.921 19.0431L141.701 17.5131C138.716 17.1381 137.306 15.6381 137.306 14.2131V13.9731ZM146.185 15.9831H151.84V17.3781H146.185V15.9831ZM144.25 18.9231H153.79V14.4231H144.25V18.9231ZM147.61 7.22306H150.445V9.30806H147.61V7.22306ZM150.01 11.9631V10.8831H154.045V9.30806H152.41V7.22306H154.165V5.64806H143.89V7.22306H145.645V9.30806H143.98V10.8831H148.03V11.9631H142.795V13.5231H155.275V11.9631H150.01Z" fill="white"/>
<path d="M34.8722 4.08548C34.2183 4.08548 33.6893 4.60881 33.6893 5.25583V9.17601C32.7757 8.33869 31.5254 7.85818 30.155 7.96761C27.8901 8.14839 26.0677 9.97052 25.909 12.2113C25.808 13.6671 26.4379 15.0563 27.5728 15.984C28.5249 16.7642 29.7559 17.1734 30.9917 17.1734C32.2035 17.1734 33.3191 16.788 34.1942 16.1505C34.3385 16.5549 34.728 16.8451 35.1896 16.8451H36.1465V4.08548H34.8722ZM31.0542 15.2418C29.6597 15.2418 28.5249 14.0287 28.5249 12.5348C28.5249 11.041 29.6549 9.82779 31.0542 9.82779C32.4487 9.82779 33.5835 11.041 33.5835 12.5348C33.5835 14.0334 32.4535 15.2418 31.0542 15.2418Z" fill="white"/>
<path d="M24.8941 16.8451V8.10083H23.615C22.9947 8.10083 22.485 8.57183 22.4369 9.17603C21.5232 8.33871 20.273 7.8582 18.9025 7.96762C16.6377 8.14841 14.8152 9.97053 14.6565 12.2113C14.5556 13.6671 15.1855 15.0563 16.3203 15.984C17.2724 16.7643 18.5034 17.1734 19.7392 17.1734C20.951 17.1734 22.0666 16.788 22.9418 16.1505C23.086 16.5549 23.4755 16.8451 23.9372 16.8451H24.8941ZM19.8018 15.2419C18.4073 15.2419 17.2724 14.0287 17.2724 12.5348C17.2724 11.041 18.4024 9.82781 19.8018 9.82781C21.1963 9.82781 22.3311 11.041 22.3311 12.5348C22.3311 14.0334 21.1963 15.2419 19.8018 15.2419Z" fill="white"/>
<path d="M49.9999 8.10559H43.6093C42.9553 8.10559 42.4264 8.62892 42.4264 9.27594V10.1608H46.4367L42.1475 15.5987V16.8546H49.9999V14.8042H45.7203L49.9999 9.37584V8.10559Z" fill="white"/>
<path d="M39.3392 7.12087C40.1677 7.12087 40.8394 6.45631 40.8394 5.63653C40.8394 4.81675 40.1677 4.15219 39.3392 4.15219C38.5106 4.15219 37.8389 4.81675 37.8389 5.63653C37.8389 6.45631 38.5106 7.12087 39.3392 7.12087Z" fill="white"/>
<path d="M12.2908 8.10559L10.5068 13.5529L8.70359 8.10559H6.94364C6.43393 8.10559 5.98192 8.4291 5.82323 8.90961L4.28928 13.5482L2.50529 8.10559H0L2.93806 16.8499H5.45297L7.40046 11.2408L9.34795 16.8499H11.8629L14.8009 8.10559H12.2908Z" fill="white"/>
<path d="M38.1274 16.8499H40.5894V8.10559H39.3104C38.6564 8.10559 38.1274 8.62892 38.1274 9.27594V16.8499Z" fill="white"/>
</svg>
