<svg width="532" height="68" viewBox="0 0 532 68" fill="none" xmlns="http://www.w3.org/2000/svg">
<path d="M239.547 43.3262C239.547 42.666 239.445 42.0736 239.242 41.5488C239.056 41.0072 238.701 40.5163 238.176 40.0762C237.651 39.6191 236.915 39.1706 235.967 38.7305C235.019 38.2904 233.792 37.8333 232.285 37.3594C230.609 36.8177 229.018 36.2083 227.512 35.5312C226.022 34.8542 224.702 34.0671 223.551 33.1699C222.417 32.2559 221.52 31.1979 220.859 29.9961C220.216 28.7943 219.895 27.3978 219.895 25.8066C219.895 24.2663 220.233 22.8698 220.91 21.6172C221.587 20.3477 222.535 19.2643 223.754 18.3672C224.973 17.4531 226.411 16.7507 228.07 16.2598C229.746 15.7689 231.583 15.5234 233.58 15.5234C236.305 15.5234 238.684 16.0143 240.715 16.9961C242.746 17.9779 244.32 19.3236 245.438 21.0332C246.572 22.7428 247.139 24.6979 247.139 26.8984H239.572C239.572 25.8151 239.344 24.8672 238.887 24.0547C238.447 23.2253 237.77 22.5736 236.855 22.0996C235.958 21.6257 234.824 21.3887 233.453 21.3887C232.133 21.3887 231.033 21.5918 230.152 21.998C229.272 22.3874 228.612 22.9206 228.172 23.5977C227.732 24.2578 227.512 25.0026 227.512 25.832C227.512 26.4583 227.664 27.0254 227.969 27.5332C228.29 28.041 228.764 28.515 229.391 28.9551C230.017 29.3952 230.787 29.8099 231.701 30.1992C232.615 30.5885 233.673 30.9694 234.875 31.3418C236.889 31.9512 238.658 32.6367 240.182 33.3984C241.722 34.1602 243.008 35.015 244.041 35.9629C245.074 36.9108 245.852 37.9857 246.377 39.1875C246.902 40.3893 247.164 41.752 247.164 43.2754C247.164 44.8835 246.851 46.3223 246.225 47.5918C245.598 48.8613 244.693 49.9362 243.508 50.8164C242.323 51.6966 240.91 52.3652 239.268 52.8223C237.626 53.2793 235.789 53.5078 233.758 53.5078C231.93 53.5078 230.127 53.2708 228.35 52.7969C226.572 52.306 224.956 51.5697 223.5 50.5879C222.061 49.6061 220.91 48.3535 220.047 46.8301C219.184 45.3066 218.752 43.5039 218.752 41.4219H226.395C226.395 42.5729 226.572 43.5462 226.928 44.3418C227.283 45.1374 227.783 45.7806 228.426 46.2715C229.086 46.7624 229.865 47.1178 230.762 47.3379C231.676 47.5579 232.674 47.668 233.758 47.668C235.078 47.668 236.161 47.4818 237.008 47.1094C237.871 46.737 238.506 46.2207 238.912 45.5605C239.335 44.9004 239.547 44.1556 239.547 43.3262ZM282.432 16.0312V53H274.814L259.961 28.2188V53H252.344V16.0312H259.961L274.84 40.8379V16.0312H282.432ZM308.305 43.3262C308.305 42.666 308.203 42.0736 308 41.5488C307.814 41.0072 307.458 40.5163 306.934 40.0762C306.409 39.6191 305.673 39.1706 304.725 38.7305C303.777 38.2904 302.549 37.8333 301.043 37.3594C299.367 36.8177 297.776 36.2083 296.27 35.5312C294.78 34.8542 293.46 34.0671 292.309 33.1699C291.174 32.2559 290.277 31.1979 289.617 29.9961C288.974 28.7943 288.652 27.3978 288.652 25.8066C288.652 24.2663 288.991 22.8698 289.668 21.6172C290.345 20.3477 291.293 19.2643 292.512 18.3672C293.73 17.4531 295.169 16.7507 296.828 16.2598C298.504 15.7689 300.34 15.5234 302.338 15.5234C305.063 15.5234 307.441 16.0143 309.473 16.9961C311.504 17.9779 313.078 19.3236 314.195 21.0332C315.329 22.7428 315.896 24.6979 315.896 26.8984H308.33C308.33 25.8151 308.102 24.8672 307.645 24.0547C307.204 23.2253 306.527 22.5736 305.613 22.0996C304.716 21.6257 303.582 21.3887 302.211 21.3887C300.891 21.3887 299.79 21.5918 298.91 21.998C298.03 22.3874 297.37 22.9206 296.93 23.5977C296.49 24.2578 296.27 25.0026 296.27 25.832C296.27 26.4583 296.422 27.0254 296.727 27.5332C297.048 28.041 297.522 28.515 298.148 28.9551C298.775 29.3952 299.545 29.8099 300.459 30.1992C301.373 30.5885 302.431 30.9694 303.633 31.3418C305.647 31.9512 307.416 32.6367 308.939 33.3984C310.48 34.1602 311.766 35.015 312.799 35.9629C313.831 36.9108 314.61 37.9857 315.135 39.1875C315.66 40.3893 315.922 41.752 315.922 43.2754C315.922 44.8835 315.609 46.3223 314.982 47.5918C314.356 48.8613 313.451 49.9362 312.266 50.8164C311.081 51.6966 309.667 52.3652 308.025 52.8223C306.383 53.2793 304.547 53.5078 302.516 53.5078C300.688 53.5078 298.885 53.2708 297.107 52.7969C295.33 52.306 293.714 51.5697 292.258 50.5879C290.819 49.6061 289.668 48.3535 288.805 46.8301C287.941 45.3066 287.51 43.5039 287.51 41.4219H295.152C295.152 42.5729 295.33 43.5462 295.686 44.3418C296.041 45.1374 296.54 45.7806 297.184 46.2715C297.844 46.7624 298.622 47.1178 299.52 47.3379C300.434 47.5579 301.432 47.668 302.516 47.668C303.836 47.668 304.919 47.4818 305.766 47.1094C306.629 46.737 307.264 46.2207 307.67 45.5605C308.093 44.9004 308.305 44.1556 308.305 43.3262ZM348.344 30.782C349.31 26.182 349.31 22.456 349.31 19.65V16.89H327.598V21.72H343.33C343.284 24.066 343.1 26.826 342.456 30.322L348.344 30.782ZM351.15 32.714C347.194 33.174 342.962 33.45 338.776 33.634V26.366H332.842V33.772C330.128 33.818 327.506 33.818 325.114 33.818L325.712 38.648C333.256 38.648 342.824 38.464 351.518 37.038L351.15 32.714ZM345.262 52.172C339.742 52.172 336.752 51.16 336.752 48.906C336.752 46.652 339.742 45.594 345.262 45.594C350.69 45.594 353.68 46.652 353.68 48.906C353.68 51.16 350.69 52.172 345.262 52.172ZM345.262 40.902C336.2 40.902 330.542 43.892 330.542 48.906C330.542 53.92 336.2 56.91 345.262 56.91C354.232 56.91 359.89 53.92 359.89 48.906C359.89 43.892 354.232 40.902 345.262 40.902ZM359.522 24.986V14.59H353.45V40.442H359.522V30H364.628V24.986H359.522ZM400.091 42.558C401.793 33.542 401.793 27.562 401.793 22.272V18.224H371.019V23.054H395.721C395.721 27.976 395.629 33.864 394.019 41.868L400.091 42.558ZM386.751 46.974V32.392H380.679V46.974H367.155V51.85H405.473V46.974H386.751ZM431.965 25.676H423.271V20.248H431.965V25.676ZM417.245 25.676H412.139V30.184H443.051V25.676H437.991V20.248H443.373V15.74H411.863V20.248H417.245V25.676ZM418.947 49.964H442.131V39.476H412.875V43.846H436.151V45.916H412.921V56.634H443.235V52.264H418.947V49.964ZM408.505 32.346V37.13H446.777V32.346H408.505ZM476.858 29.678H480.262V43.064H486.012V14.59H480.262V24.848H476.858V15.326H471.2V39.568H476.858V29.678ZM469.176 33.45C465.358 34.186 461.954 34.416 457.446 34.508V30.506H467.612V17.534H451.558V22.272H461.77V26.09H451.604V39.292H454.548C460.85 39.292 464.944 39.154 469.728 38.188L469.176 33.45ZM474.466 41.27H468.394V42.006C468.394 46.376 464.024 50.976 454.916 52.126L457.262 56.818C463.978 55.852 468.808 53.046 471.43 49.136C473.96 53.046 478.836 55.852 485.552 56.818L487.944 52.126C478.79 50.976 474.466 46.376 474.466 42.006V41.27ZM501.694 47.434H519.036V51.712H501.694V47.434ZM495.76 56.45H525.016V42.65H495.76V56.45ZM506.064 20.57H514.758V26.964H506.064V20.57ZM513.424 35.106V31.794H525.798V26.964H520.784V20.57H526.166V15.74H494.656V20.57H500.038V26.964H494.932V31.794H507.352V35.106H491.298V39.89H529.57V35.106H513.424Z" fill="#202428"/>
<path d="M136.699 1C134.136 1 132.062 3.03926 132.062 5.56052V20.8364C128.481 17.5736 123.58 15.7012 118.208 16.1276C109.329 16.832 102.185 23.9324 101.563 32.6641C101.167 38.3369 103.637 43.7502 108.085 47.3653C111.818 50.4056 116.643 51.9999 121.488 51.9999C126.238 51.9999 130.611 50.4983 134.041 48.0141C134.607 49.5899 136.134 50.7208 137.943 50.7208H141.695V1H136.699ZM121.733 44.4732C116.266 44.4732 111.818 39.7459 111.818 33.9247C111.818 28.1036 116.247 23.3762 121.733 23.3762C127.199 23.3762 131.648 28.1036 131.648 33.9247C131.648 39.7644 127.218 44.4732 121.733 44.4732Z" fill="#202428"/>
<path d="M97.5851 50.7208V16.6467H92.5711C90.1395 16.6467 88.1414 18.4821 87.9529 20.8365C84.3714 17.5737 79.4705 15.7013 74.0983 16.1276C65.22 16.8321 58.076 23.9324 57.4539 32.6642C57.0581 38.337 59.5274 43.7503 63.9759 47.3653C67.7082 50.4057 72.5338 52 77.3782 52C82.1283 52 86.5015 50.4984 89.9321 48.0142C90.4976 49.59 92.0244 50.7208 93.834 50.7208H97.5851ZM77.6232 44.4733C72.1568 44.4733 67.7082 39.7459 67.7082 33.9248C67.7082 28.1036 72.1379 23.3763 77.6232 23.3763C83.0896 23.3763 87.5382 28.1036 87.5382 33.9248C87.5382 39.7645 83.0896 44.4733 77.6232 44.4733Z" fill="#202428"/>
<path d="M196 16.6653H170.949C168.385 16.6653 166.312 18.7045 166.312 21.2258V24.674H182.032L165.218 45.8637V50.7579H196V42.7677H179.224L196 21.6151V16.6653Z" fill="#202428"/>
<path d="M154.21 12.8281C157.458 12.8281 160.091 10.2385 160.091 7.04403C160.091 3.84958 157.458 1.25996 154.21 1.25996C150.962 1.25996 148.329 3.84958 148.329 7.04403C148.329 10.2385 150.962 12.8281 154.21 12.8281Z" fill="#202428"/>
<path d="M48.1801 16.6653L41.1868 37.8921L34.1181 16.6653H27.2191C25.221 16.6653 23.4492 17.9259 22.8271 19.7983L16.814 37.8735L9.82075 16.6653H0L11.5172 50.7394H21.3757L29.0098 28.8823L36.644 50.7394H46.5025L58.0197 16.6653H48.1801Z" fill="#202428"/>
<path d="M149.46 50.7394H159.111V16.6653H154.097C151.533 16.6653 149.46 18.7045 149.46 21.2258V50.7394Z" fill="#202428"/>
</svg>
